<svg width="27" height="27" viewBox="0 0 27 27" fill="none" xmlns="http://www.w3.org/2000/svg">
<circle cx="13.5" cy="13.5" r="13.5" fill="#8CE0FF"/>
<path fill-rule="evenodd" clip-rule="evenodd" d="M7 9L10.9504 12.9504C11.0136 12.8922 11.0824 12.8296 11.1562 12.763C11.5743 12.3859 12.1582 11.8817 12.8186 11.3759C13.4766 10.8718 14.224 10.3558 14.9682 9.96295C15.6965 9.57853 16.4956 9.27183 17.2375 9.27183C19.879 9.27183 22.0938 11.2893 22.0938 13.8656C22.0938 16.4419 19.879 18.4593 17.2375 18.4593C16.4956 18.4593 15.6965 18.1526 14.9682 17.7682C14.224 17.3754 13.4766 16.8594 12.8186 16.3553C12.1582 15.8495 11.5743 15.3452 11.1562 14.9682C11.0824 14.9017 11.0136 14.8389 10.9504 14.7807L7 18.7312V9ZM11.8943 13.8656C11.9387 13.825 11.9857 13.7823 12.0351 13.7377C12.4358 13.3764 12.992 12.8963 13.6168 12.4178C14.2438 11.9375 14.9264 11.4691 15.5809 11.1237C16.2513 10.7698 16.8197 10.5843 17.2375 10.5843C19.2352 10.5843 20.7812 12.0927 20.7812 13.8656C20.7812 15.6385 19.2352 17.1468 17.2375 17.1468C16.8197 17.1468 16.2513 16.9613 15.5809 16.6075C14.9264 16.262 14.2438 15.7937 13.6168 15.3133C12.992 14.8348 12.4358 14.3547 12.0351 13.9934C11.9857 13.9489 11.9387 13.9062 11.8943 13.8656ZM10.0094 13.8656L8.3125 12.1687V15.5625L10.0094 13.8656Z" fill="#0B0B0B"/>
<path d="M18.75 13.5156C18.75 14.0593 18.3093 14.5 17.7656 14.5C17.222 14.5 16.7812 14.0593 16.7812 13.5156C16.7812 12.972 17.222 12.5312 17.7656 12.5312C18.3093 12.5312 18.75 12.972 18.75 13.5156Z" fill="black"/>
</svg>
