<svg width="27" height="27" viewBox="0 0 27 27" fill="none" xmlns="http://www.w3.org/2000/svg">
<circle cx="13.5" cy="13.5" r="13.5" fill="#FFD901"/>
<g clip-path="url(#clip0_3_63)">
<path d="M16 7.125V8.57946L14 10.8295V6H13V10.8295L11 8.57946V7.125H10V16.125C10.0014 17.0709 10.3053 17.9847 10.8561 18.6994C11.4069 19.414 12.1679 19.8819 13 20.0175V22.3125H14V20.0175C14.8321 19.8819 15.5931 19.414 16.1439 18.6994C16.6947 17.9847 16.9986 17.0709 17 16.125V7.125H16ZM13 18.8805C12.4358 18.7501 11.9288 18.4048 11.5645 17.9029C11.2001 17.4009 11.0008 16.773 11 16.125V14.6704L13 16.9204V18.8805ZM13 15.3295L11 13.0795V10.1703L13 12.4203V15.3295ZM14 12.4203L16 10.1703V13.0795L14 15.3295V12.4203ZM14 18.8805V16.9203L16 14.6703V16.125C15.9992 16.773 15.7999 17.4009 15.4355 17.9029C15.0712 18.4048 14.5642 18.7501 14 18.8805Z" fill="black"/>
</g>
<defs>
<clipPath id="clip0_3_63">
<rect width="16" height="18" fill="white" transform="translate(6 5)"/>
</clipPath>
</defs>
</svg>
