<svg width="27" height="27" viewBox="0 0 27 27" fill="none" xmlns="http://www.w3.org/2000/svg">
<circle cx="13.5" cy="13.5" r="13.5" fill="white"/>
<path d="M15.1263 8.73783C14.9944 8.49624 14.7397 8.35419 14.4644 8.35419H12.5626C12.2728 8.35419 12.007 8.51147 11.8776 8.77069C11.4295 9.66866 10.4296 11.8397 10.3398 13.497L10.3366 13.5L10.3333 13.5033V18.6459C10.3333 19.5203 11.0422 20.2292 11.9166 20.2292H15.0833C15.9578 20.2292 16.6666 19.5203 16.6666 18.6459V13.5025L16.6642 13.5L16.6617 13.4977C16.5834 11.6051 15.5791 9.56716 15.1263 8.73783Z" stroke="black"/>
<path d="M15.4792 6.77081H11.5208C11.3022 6.77081 11.125 6.94803 11.125 7.16665V7.95831C11.125 8.17693 11.3022 8.35415 11.5208 8.35415H15.4792C15.6978 8.35415 15.875 8.17693 15.875 7.95831V7.16665C15.875 6.94803 15.6978 6.77081 15.4792 6.77081Z" stroke="black"/>
<path d="M11.9167 13.8958C11.9167 15.3472 11.9167 18.25 11.9167 18.25" stroke="black" stroke-linecap="round"/>
</svg>
