<svg width="27" height="27" viewBox="0 0 27 27" fill="none" xmlns="http://www.w3.org/2000/svg">
<circle cx="13.5" cy="13.5" r="13.5" fill="black"/>
<g clip-path="url(#clip0_25_85)">
<path d="M20.7331 12.0608L15.6379 9.67406V6.89915C15.6379 6.64324 15.4304 6.43579 15.1745 6.43579H7.94616C7.69025 6.43579 7.4828 6.64324 7.4828 6.89915V12.4093H6.46336C6.20745 12.4092 6 12.6167 6 12.8726V20.1009C6 20.3568 6.20745 20.5643 6.46336 20.5643H13.6917C13.9475 20.5643 14.155 20.3568 14.155 20.1009V17.9849L17.2739 19.4458C17.3375 19.4756 17.4043 19.4897 17.4701 19.4897C17.6444 19.4897 17.8113 19.3909 17.8901 19.2227L20.9561 12.6769C21.0647 12.4451 20.9648 12.1693 20.7331 12.0608ZM8.40952 7.36251H14.7111V9.24L14.1873 8.99464C14.0759 8.94252 13.9486 8.93672 13.833 8.97855C13.7175 9.02039 13.6233 9.10641 13.5711 9.21771L12.0762 12.4092H9.9849V10.8023C9.9849 10.5464 9.77745 10.3389 9.52154 10.3389C9.26563 10.3389 9.05818 10.5464 9.05818 10.8023V12.4092H8.40952V7.36251ZM6.92672 19.6376V13.336H7.94616H12.3708H13.2283V17.2562V19.6376H6.92672ZM17.2474 18.41L14.155 16.9615V12.8726C14.155 12.6167 13.9475 12.4092 13.6917 12.4092H13.0995L14.2138 10.0304L14.9779 10.3883C14.9781 10.3884 14.9783 10.3885 14.9785 10.3886L19.9204 12.7034L17.2474 18.41Z" fill="white"/>
<path d="M8.27049 14.3702C8.01458 14.3702 7.80713 14.5776 7.80713 14.8335V16.8503C7.80713 17.1062 8.01458 17.3137 8.27049 17.3137C8.5264 17.3137 8.73385 17.1062 8.73385 16.8503V14.8335C8.73385 14.5776 8.5264 14.3702 8.27049 14.3702Z" fill="white"/>
<path d="M8.59802 17.9126C8.5767 17.8913 8.55308 17.8719 8.5276 17.8552C8.50258 17.8385 8.47571 17.8241 8.44744 17.8125C8.41964 17.801 8.39046 17.7921 8.36078 17.7861C8.30101 17.7741 8.23984 17.7741 8.18008 17.7861C8.15043 17.7922 8.12122 17.801 8.09342 17.8125C8.06514 17.8241 8.03828 17.8385 8.01326 17.8552C7.98777 17.8718 7.96413 17.8913 7.94283 17.9126C7.85664 17.9993 7.80707 18.1183 7.80707 18.2402C7.80707 18.2708 7.81032 18.3009 7.81633 18.331C7.82189 18.3607 7.83115 18.3899 7.84272 18.4177C7.85429 18.4455 7.86868 18.4724 7.88535 18.4978C7.90202 18.5229 7.9215 18.547 7.9428 18.5683C7.96413 18.5896 7.98774 18.609 8.01323 18.6257C8.03825 18.6424 8.06511 18.6568 8.09339 18.6683C8.12119 18.6799 8.15037 18.6887 8.18005 18.6948C8.20969 18.7008 8.24028 18.704 8.2704 18.704C8.30052 18.704 8.3311 18.7008 8.36075 18.6948C8.3904 18.6887 8.41961 18.6799 8.44741 18.6683C8.47568 18.6568 8.50255 18.6424 8.52757 18.6257C8.55305 18.609 8.5767 18.5896 8.598 18.5683C8.61929 18.547 8.63878 18.5229 8.65592 18.4978C8.67259 18.4724 8.68697 18.4455 8.69854 18.4177C8.71011 18.3899 8.71893 18.3607 8.72494 18.331C8.73097 18.3009 8.73376 18.2708 8.73376 18.2402C8.73379 18.1183 8.68422 17.9993 8.59802 17.9126Z" fill="white"/>
<path d="M9.97557 9.32188C9.97 9.29223 9.96074 9.26303 9.94914 9.23522C9.93757 9.20695 9.92319 9.18009 9.90652 9.15507C9.88985 9.12958 9.87036 9.10596 9.84907 9.08464C9.82777 9.06331 9.80412 9.04386 9.77864 9.02719C9.75362 9.01052 9.72675 8.99613 9.69895 8.98456C9.67068 8.97299 9.6415 8.9637 9.61185 8.95813C9.46173 8.92755 9.30139 8.97712 9.1939 9.08464C9.17257 9.10596 9.15312 9.12958 9.13645 9.15507C9.11978 9.18009 9.10539 9.20695 9.09382 9.23522C9.08225 9.26303 9.07343 9.2922 9.06742 9.32188C9.06139 9.35153 9.05817 9.38212 9.05817 9.41223C9.05817 9.44235 9.06142 9.47294 9.06742 9.50259C9.07346 9.5322 9.08225 9.56144 9.09382 9.58925C9.10539 9.61752 9.11978 9.64438 9.13645 9.6694C9.15312 9.69489 9.1726 9.7185 9.1939 9.73983C9.28009 9.82602 9.39962 9.87559 9.5215 9.87559C9.55161 9.87559 9.5822 9.87234 9.61185 9.86634C9.6415 9.86077 9.67071 9.85151 9.69895 9.83994C9.72675 9.82837 9.75362 9.81398 9.77864 9.79731C9.80412 9.78064 9.82777 9.76116 9.84907 9.73986C9.87039 9.71853 9.88985 9.69492 9.90652 9.66943C9.92319 9.64441 9.93757 9.61755 9.94914 9.58928C9.96072 9.56147 9.97 9.53229 9.97557 9.50262C9.9816 9.47297 9.98483 9.44238 9.98483 9.41226C9.98483 9.38215 9.9816 9.35156 9.97557 9.32188Z" fill="white"/>
</g>
<defs>
<clipPath id="clip0_25_85">
<rect width="15" height="15" fill="white" transform="translate(6 6)"/>
</clipPath>
</defs>
</svg>
