<svg width="27" height="27" viewBox="0 0 27 27" fill="none" xmlns="http://www.w3.org/2000/svg">
<path d="M0.732244 0.732225C-0.244081 1.70855 -0.244081 3.29145 0.732244 4.26777L9.69509 13.2306L0.732244 22.1936C-0.244081 23.1698 -0.244081 24.7528 0.732244 25.7291C1.70854 26.7053 3.29147 26.7053 4.26777 25.7291L13.2306 16.7661L22.1936 25.7291C23.1698 26.7053 24.7528 26.7053 25.7291 25.7291C26.7053 24.7528 26.7053 23.1698 25.7291 22.1936L16.7661 13.2306L25.7291 4.2678C26.7053 3.2915 26.7053 1.70858 25.7291 0.732275C24.7526 -0.24405 23.1698 -0.24405 22.1936 0.732275L13.2306 9.69508L4.26777 0.732225C3.29147 -0.244075 1.70854 -0.244075 0.732244 0.732225Z" fill="#FF4343"/>
</svg>
