<svg width="35" height="27" viewBox="0 0 35 27" fill="none" xmlns="http://www.w3.org/2000/svg">
<path d="M10.1506 9.05859L10.1505 11.4121C10.1505 11.8354 9.99428 12.1797 9.69849 12.4079C9.62404 12.4653 9.53996 12.5158 9.4472 12.5594V9.05865H7.36791V12.5593C7.27522 12.5157 7.19127 12.4652 7.11683 12.4078C6.8211 12.1797 6.66477 11.8354 6.66483 11.412V9.05875H4.58548V11.412C4.58541 12.27 4.95236 13.0066 5.64655 13.5421C6.11304 13.9019 6.69751 14.147 7.36784 14.2696V21.3146H9.44713V14.2696C10.1177 14.1471 10.7023 13.9018 11.1687 13.5421C11.8629 13.0067 12.2298 12.2701 12.2298 11.4121L12.2299 9.0587L10.1506 9.05859Z" fill="#A9A9A9"/>
<path d="M26.5923 8.79129C24.7881 8.79134 23.3203 9.92371 23.3203 11.3154V13.1971C23.3203 14.3086 24.2568 15.2538 25.5527 15.5898V21.3145H27.632V15.5899C28.9279 15.2539 29.8644 14.3086 29.8643 13.1972L29.8644 11.3152C29.8641 9.9236 28.3963 8.79134 26.5923 8.79129ZM27.7851 13.1972C27.7851 13.7046 27.2501 14.1173 26.5925 14.1173C25.9347 14.1173 25.3997 13.7046 25.3997 13.1972V11.3155C25.3997 10.8082 25.9347 10.3955 26.5923 10.3954C27.25 10.3955 27.785 10.8082 27.7851 11.3154L27.7851 13.1972Z" fill="#A9A9A9"/>
<path d="M32.3853 1.68158L20.3287 3.93408C19.0709 4.1563 18.1441 4.53351 17.5 5.0859C16.8559 4.53351 15.9292 4.15635 14.6713 3.93413L2.61468 1.68158L0 5.10357V23.0572L15.5845 25.3047L15.6792 25.3184H19.3208L35 23.0572V5.10357L32.3853 1.68158ZM14.7358 23.5505L2.07929 21.7252V6.28814L14.7358 8.11343V23.5505ZM15.8718 6.64541L2.68816 4.74418L3.62325 3.52043L14.1885 5.49427L14.2019 5.49675C15.5018 5.72567 16.0835 6.11206 16.319 6.64547L15.8718 6.64541ZM18.1847 23.7143H16.8151V8.24949H18.1847V23.7143ZM19.1281 6.64547H18.681C18.9165 6.112 19.4982 5.72562 20.7981 5.4967L31.3767 3.52037L32.3118 4.74413L19.1281 6.64547ZM32.9207 21.7252L20.2641 23.5505V8.11343L32.9207 6.28814V21.7252Z" fill="#A9A9A9"/>
</svg>
