<svg width="20" height="17" viewBox="0 0 20 17" fill="none" xmlns="http://www.w3.org/2000/svg">
<path fill-rule="evenodd" clip-rule="evenodd" d="M2.74999 7.65001C2.74999 4.36391 5.60418 1.7 9.125 1.7C12.6458 1.7 15.5 4.36391 15.5 7.65001C15.5 10.9361 12.6458 13.6 9.125 13.6C5.60418 13.6 2.74999 10.9361 2.74999 7.65001ZM9.125 0C4.59823 0 0.928558 3.42503 0.928558 7.65001C0.928558 11.875 4.59823 15.3 9.125 15.3C11.0603 15.3 12.8389 14.674 14.2411 13.6271L17.5882 16.7511C17.9438 17.083 18.5205 17.083 18.8761 16.7511C19.2318 16.4191 19.2318 15.8809 18.8761 15.549L15.5291 12.4251C16.6507 11.1163 17.3214 9.45626 17.3214 7.65001C17.3214 3.42503 13.6518 0 9.125 0Z" fill="#DADADA"/>
</svg>
