<svg width="52" height="65" viewBox="0 0 52 65" fill="none" xmlns="http://www.w3.org/2000/svg">
<path d="M26.0776 29.657C24.7042 21.9175 24.7184 5.6602 35.7618 2.54695" stroke="black" stroke-width="4"/>
<ellipse cx="24.7864" cy="39.4975" rx="22.7065" ry="21.2792" fill="#FF9B17"/>
<ellipse cx="14.7333" cy="55.7411" rx="7.45329" ry="6.98477" fill="#FF9B17"/>
<ellipse cx="17.1596" cy="25.2031" rx="7.45329" ry="6.98477" fill="#FF9B17"/>
<ellipse cx="35.0131" cy="23.4163" rx="5.19997" ry="4.22335" fill="#FF9B17"/>
<ellipse cx="28.7731" cy="21.1421" rx="5.19997" ry="4.22335" fill="#FF9B17"/>
<ellipse cx="3.11044" cy="2.44501" rx="3.11044" ry="2.44501" transform="matrix(0.977581 -0.210559 0.238194 0.971218 18.5635 17.6356)" fill="#FF9B17"/>
<ellipse cx="41.0796" cy="30.7259" rx="7.45329" ry="6.98477" fill="#FF9B17"/>
<ellipse cx="44.5464" cy="40.797" rx="7.45329" ry="6.98477" fill="#FF9B17"/>
<ellipse cx="43.5064" cy="49.8934" rx="6.4133" ry="6.01015" fill="#FF9B17"/>
<ellipse cx="35.1866" cy="54.7665" rx="9.18662" ry="7.95939" fill="#FF9B17"/>
<ellipse cx="26.1734" cy="58.0152" rx="7.45329" ry="6.98477" fill="#FF9B17"/>
<ellipse cx="8.66637" cy="28.2894" rx="5.8933" ry="5.52284" fill="#FF9B17"/>
<ellipse cx="7.45329" cy="37.5482" rx="7.45329" ry="6.98477" fill="#FF9B17"/>
<ellipse cx="7.45329" cy="47.6192" rx="7.45329" ry="6.98477" fill="#FF9B17"/>
<path d="M15.4125 47.4569C18.8213 50.6515 27.6844 55.1239 35.8657 47.4569" stroke="black" stroke-width="3"/>
<path d="M18.6725 45.2791L13 50.19" stroke="black" stroke-width="3"/>
<path d="M21 39.5C21.5141 27.2333 19.26 14.5667 28 37.5C29.7882 40.5667 30 26 30 23" stroke="black" stroke-width="3"/>
</svg>
